<?xml version="1.0" standalone="no"?>
<!-- Creator: fig2dev Version 3.2.7a -->
<!-- CreationDate: 2019-04-30 17:00:59 -->
<!-- Magnification: 1.05 -->
<svg	xmlns="http://www.w3.org/2000/svg"
	xmlns:xlink="http://www.w3.org/1999/xlink"
	width="247pt" height="235pt"
	viewBox="4319 1235 3914 3730">
<g fill="none">
<!-- Text -->
<text xml:space="preserve" x="7200" y="4050" fill="#000000" font-family="Times" font-style="normal" font-weight="normal" font-size="144" text-anchor="start">2</text>
<!-- Text -->
<text xml:space="preserve" x="6255" y="1575" fill="#000000" font-family="Times" font-style="normal" font-weight="normal" font-size="144" text-anchor="start">\lambda</text>
<!-- Circle -->
<circle cx="7227" cy="2412" r="288"
	stroke="#000000" stroke-width="8px"/>
<!-- Text -->
<text xml:space="preserve" x="7182" y="2457" fill="#000000" font-family="Times" font-style="normal" font-weight="normal" font-size="144" text-anchor="start">@</text>
<!-- Circle -->
<circle cx="6417" cy="3267" r="288"
	stroke="#000000" stroke-width="8px"/>
<!-- Text -->
<text xml:space="preserve" x="6372" y="3312" fill="#000000" font-family="Times" font-style="normal" font-weight="normal" font-size="144" text-anchor="start">@</text>
<!-- Line -->
<polyline points=" 6524,1709 7019,2204"
	stroke="#000000" stroke-width="8px"/>
<!-- Line -->
<polyline points=" 7987,3037 7492,2542"
	stroke="#000000" stroke-width="8px"/>
<!-- Line -->
<polyline points=" 6952,2497 6457,2992"
	stroke="#000000" stroke-width="8px"/>
<!-- Line -->
<polyline points=" 5647,3892 6142,3397"
	stroke="#000000" stroke-width="8px"/>
<!-- Line -->
<polyline points=" 6704,3374 7199,3869"
	stroke="#000000" stroke-width="8px"/>
<!-- Line -->
<polyline points=" 6030,1620 6029,1620 6027,1621 6023,1622 6017,1624 6008,1627
 5996,1632 5981,1637 5962,1643 5940,1651 5914,1660 5885,1671 5853,1683 5818,1696
 5780,1710 5739,1726 5697,1743 5652,1761 5606,1780 5559,1800 5511,1821 5462,1843
 5413,1866 5364,1891 5314,1916 5265,1942 5216,1970 5167,1999 5118,2029 5069,2061
 5021,2094 4973,2130 4926,2167 4879,2207 4833,2248 4788,2293 4743,2339 4700,2389
 4658,2441 4618,2495 4580,2552 4545,2610 4514,2669 4486,2729 4461,2787 4439,2843
 4420,2897 4404,2948 4390,2996 4378,3040 4369,3081 4360,3118 4353,3152 4347,3183
 4343,3211 4339,3236 4336,3259 4334,3280 4332,3299 4331,3316 4331,3333 4331,3348
 4331,3364 4332,3379 4334,3395 4336,3411 4339,3428 4343,3447 4347,3468 4353,3490
 4359,3515 4367,3542 4376,3572 4387,3606 4400,3642 4415,3682 4432,3725 4452,3771
 4474,3820 4500,3872 4529,3927 4561,3982 4596,4039 4635,4095 4675,4147 4718,4198
 4761,4246 4805,4292 4848,4335 4890,4375 4930,4412 4969,4447 5005,4478 5040,4507
 5072,4533 5101,4556 5129,4578 5154,4597 5178,4615 5200,4630 5220,4645 5240,4658
 5258,4670 5276,4682 5293,4692 5310,4703 5327,4712 5345,4722 5364,4732 5385,4741
 5406,4751 5430,4762 5456,4772 5484,4783 5515,4795 5550,4807 5588,4820 5630,4833
 5675,4846 5725,4860 5779,4874 5837,4888 5899,4902 5964,4914 6033,4926 6105,4936
 6180,4944 6255,4950 6334,4953 6412,4952 6488,4949 6561,4944 6631,4938 6696,4930
 6757,4920 6814,4911 6866,4900 6914,4890 6958,4879 6998,4868 7034,4857 7067,4846
 7097,4835 7125,4824 7150,4814 7174,4803 7196,4792 7217,4781 7238,4770 7258,4759
 7278,4747 7299,4734 7321,4721 7343,4707 7368,4692 7394,4676 7422,4659 7452,4641
 7484,4620 7519,4599 7557,4575 7597,4550 7639,4522 7683,4493 7730,4461 7777,4427
 7826,4392 7874,4354 7921,4315 7965,4275 8012,4227 8055,4179 8091,4131 8123,4084
 8149,4038 8171,3993 8188,3950 8201,3907 8211,3866 8217,3826 8221,3786 8221,3748
 8220,3710 8216,3673 8210,3637 8203,3601 8194,3566 8184,3532 8174,3500 8162,3468
 8150,3437 8138,3409 8127,3382 8115,3357 8104,3334 8094,3314 8085,3296 8077,3281
 8071,3268 8065,3258 8061,3251 8058,3246 8056,3243 8055,3241 8055,3240"
	stroke="#000000" stroke-width="8px" stroke-linejoin="bevel"/>
<!-- Text -->
<text xml:space="preserve" x="5490" y="4050" fill="#000000" font-family="Times" font-style="normal" font-weight="normal" font-size="144" text-anchor="start">+</text>
<!-- Text -->
<text xml:space="preserve" x="7965" y="3195" fill="#000000" font-family="Times" font-style="normal" font-weight="normal" font-size="144" text-anchor="start">x</text>
<!-- Circle -->
<circle cx="6300" cy="1530" r="288"
	stroke="#000000" stroke-width="8px"/>
</g>
</svg>
