<?xml version="1.0" encoding="UTF-8"?>
<!DOCTYPE svg PUBLIC "-//W3C//DTD SVG 1.1//EN" "http://www.w3.org/Graphics/SVG/1.1/DTD/svg11.dtd">
<svg xmlns="http://www.w3.org/2000/svg" xmlns:xlink="http://www.w3.org/1999/xlink" version="1.1" width="322px" height="242px" viewBox="-0.5 -0.5 322 242" style="background-color: rgb(255, 255, 255);"><defs><clipPath id="mx-clip-5-32-132-54-0"><rect x="5" y="32" width="132" height="54"/></clipPath><clipPath id="mx-clip-185-32-132-54-0"><rect x="185" y="32" width="132" height="54"/></clipPath></defs><g><path d="M 1 27 L 1 1 L 141 1 L 141 27" fill="none" stroke="rgb(0, 0, 0)" stroke-width="2" stroke-miterlimit="10" pointer-events="all"/><path d="M 1 27 L 1 81 L 141 81 L 141 27" fill="none" stroke="rgb(0, 0, 0)" stroke-width="2" stroke-miterlimit="10" pointer-events="none"/><path d="M 1 27 L 141 27" fill="none" stroke="rgb(0, 0, 0)" stroke-width="2" stroke-miterlimit="10" pointer-events="none"/><g fill="rgb(0, 0, 0)" font-family="Helvetica" pointer-events="none" text-anchor="middle" font-size="12px"><text x="70.5" y="18.5">Cotxe</text></g><g fill="rgb(0, 0, 0)" font-family="Helvetica" pointer-events="none" clip-path="url(#mx-clip-5-32-132-54-0)" font-size="12px"><text x="6.5" y="44.5">girar(angle)</text></g><path d="M 181 27 L 181 1 L 321 1 L 321 27" fill="none" stroke="rgb(0, 0, 0)" stroke-width="2" stroke-miterlimit="10" pointer-events="none"/><path d="M 181 27 L 181 81 L 321 81 L 321 27" fill="none" stroke="rgb(0, 0, 0)" stroke-width="2" stroke-miterlimit="10" pointer-events="none"/><path d="M 181 27 L 321 27" fill="none" stroke="rgb(0, 0, 0)" stroke-width="2" stroke-miterlimit="10" pointer-events="none"/><g fill="rgb(0, 0, 0)" font-family="Helvetica" pointer-events="none" text-anchor="middle" font-size="12px"><text x="250.5" y="18.5">Vaixell</text></g><g fill="rgb(0, 0, 0)" font-family="Helvetica" pointer-events="none" clip-path="url(#mx-clip-185-32-132-54-0)" font-size="12px"><text x="186.5" y="44.5">girar(angle)</text></g><path d="M 91 187 L 91 161 L 231 161 L 231 187" fill="none" stroke="rgb(0, 0, 0)" stroke-width="2" stroke-miterlimit="10" pointer-events="none"/><path d="M 91 187 L 91 241 L 231 241 L 231 187" fill="none" stroke="rgb(0, 0, 0)" stroke-width="2" stroke-miterlimit="10" pointer-events="none"/><path d="M 91 187 L 231 187" fill="none" stroke="rgb(0, 0, 0)" stroke-width="2" stroke-miterlimit="10" pointer-events="none"/><g fill="rgb(0, 0, 0)" font-family="Helvetica" pointer-events="none" text-anchor="middle" font-size="12px"><text x="160.5" y="178.5">Amfibi</text></g><path d="M 126 161 L 81.15 95.43" fill="none" stroke="rgb(0, 0, 0)" stroke-width="2" stroke-miterlimit="10" pointer-events="none"/><path d="M 73.24 83.87 L 86.92 91.47 L 75.37 99.38 Z" fill="none" stroke="rgb(0, 0, 0)" stroke-width="2" stroke-miterlimit="10" pointer-events="none"/><path d="M 196 161 L 241.8 94.38" fill="none" stroke="rgb(0, 0, 0)" stroke-width="2" stroke-miterlimit="10" pointer-events="none"/><path d="M 249.73 82.84 L 247.57 98.34 L 236.03 90.41 Z" fill="none" stroke="rgb(0, 0, 0)" stroke-width="2" stroke-miterlimit="10" pointer-events="none"/></g></svg>